<svg id="Layer_4" enable-background="new 0 0 256 256" height="512" viewBox="0 0 256 256" width="512" xmlns="http://www.w3.org/2000/svg"><g><path d="m239.776 80.948c-.153-1.151-.958-2.111-2.064-2.463-15.386-4.895-31.595-2.345-43.948 6.772-3.601-14.924-14.379-27.296-29.313-33.437-1.073-.442-2.306-.225-3.165.56-12.666 11.57-18.52 28.137-15.659 44.317.952 5.383 2.843 10.465 5.502 15.104-16.302 2.629-28.793 16.793-28.793 33.825v22.052c0 18.895 15.373 34.268 34.268 34.268 18.896 0 34.268-15.373 34.268-34.268v-22.052c0-3.397-.504-6.677-1.429-9.777 13.224.984 25.227-3.666 33.841-10.887 12.593-10.555 18.758-27.009 16.492-44.014zm-26.34 1.976c5.459-1.126 11.196-1.165 16.911-.099l-18.037 15.122s1.124-14.979 1.126-15.023zm-16.284 7.293c3.124-2.331 6.541-4.167 10.145-5.51l-1.412 18.626-10.387 8.708zm-33.215-32.078c13.015 5.989 22.12 17.445 24.514 30.985.038.213.058.426.092.639-5.881 5.862-10.039 13.14-12.221 21.134l-5.589-31.621c-.288-1.631-1.845-2.72-3.476-2.432-1.632.288-2.721 1.845-2.432 3.476l6.037 34.157c-3.963-1.821-8.328-2.909-12.925-3.085-3.181-4.711-5.392-10.037-6.401-15.74-2.394-13.54 2.229-27.424 12.401-37.513zm26.739 38.134-1.604 21.155-6.714 5.629c-.548-.625-1.115-1.232-1.707-1.815.6-9.348 4.096-18.08 10.025-24.969zm-5.804 71.405c0 15.587-12.681 28.268-28.268 28.268s-28.268-12.681-28.268-28.268v-22.052c0-15.587 12.681-28.268 28.268-28.268s28.268 12.681 28.268 28.268zm1.989-38.118c-.3-.562-.61-1.118-.94-1.661l6.979-5.851 21.16 2.099c-8.06 4.782-17.597 6.673-27.199 5.413zm34.296-10.738-21.826-2.165 10.396-8.715 18.624 1.847c-1.951 3.315-4.354 6.362-7.194 9.033zm10.019-14.768c-.048-.007-15.018-1.505-15.018-1.505l18.058-15.139c.057 5.817-.98 11.462-3.04 16.644z"/><path d="m156.604 125.045c-11.349 0-20.582 9.232-20.582 20.581v22.052c0 11.349 9.233 20.581 20.582 20.581s20.582-9.232 20.582-20.581v-22.052c0-11.349-9.233-20.581-20.582-20.581zm14.582 42.633c0 8.04-6.542 14.581-14.582 14.581s-14.582-6.541-14.582-14.581v-22.052c0-8.04 6.541-14.581 14.582-14.581s14.582 6.541 14.582 14.581z"/><path d="m102.831 111.286c-5.427 0-9.843 4.416-9.843 9.843v71.046c0 5.427 4.416 9.843 9.843 9.843 5.428 0 9.843-4.416 9.843-9.843v-71.046c0-5.427-4.415-9.843-9.843-9.843zm3.843 80.889c0 2.119-1.724 3.843-3.843 3.843s-3.843-1.724-3.843-3.843v-71.046c0-2.119 1.724-3.843 3.843-3.843s3.843 1.724 3.843 3.843z"/><path d="m55.946 111.169h-28.039c-5.428 0-9.843 4.416-9.843 9.843v71.045c0 5.428 4.416 9.843 9.843 9.843h28.038c15.341 0 28.112-12.217 28.467-27.233.158-6.667-2.007-13.008-6.144-18.133 4.137-5.125 6.302-11.465 6.145-18.132-.356-15.016-13.126-27.233-28.467-27.233zm16.168 47.471c4.204 4.27 6.441 9.911 6.299 15.886-.279 11.787-10.359 21.375-22.469 21.375h-28.037c-2.119 0-3.843-1.724-3.843-3.843v-71.045c0-2.119 1.724-3.843 3.843-3.843h28.039c12.11 0 22.189 9.589 22.468 21.375.141 5.974-2.096 11.616-6.3 15.886-1.15 1.167-1.15 3.041 0 4.209z"/><path d="m56.515 161.145h-21.765c-1.657 0-3 1.343-3 3v19.702c0 1.657 1.343 3 3 3h21.766c7.086 0 12.851-5.765 12.851-12.851s-5.766-12.851-12.852-12.851zm0 19.702h-18.765v-13.702h18.766c3.777 0 6.851 3.073 6.851 6.851-.001 3.777-3.075 6.851-6.852 6.851z"/><path d="m56.515 126.224h-21.765c-1.657 0-3 1.343-3 3v19.701c0 1.657 1.343 3 3 3h21.766c7.086 0 12.851-5.765 12.851-12.851-.001-7.086-5.766-12.85-12.852-12.85zm0 19.701h-18.765v-13.701h18.766c3.777 0 6.851 3.073 6.851 6.85-.001 3.778-3.075 6.851-6.852 6.851z"/></g></svg>