<svg id="Outline" enable-background="new 0 0 512 512" height="512" viewBox="0 0 512 512" width="512" xmlns="http://www.w3.org/2000/svg"><g><path d="m471.987 399.339c-.253-9.805-6.282-23.471-31.987-35.475v-213.836c17.311-8.279 22.265-16.67 23.155-18.45.222-.442.402-.904.537-1.38l13.108-45.885c2.077-3.773 3.177-8.006 3.2-12.313 0-11.7-8.267-28.4-47.646-41.531-27.993-9.33-65.054-14.469-104.354-14.469s-76.361 5.139-104.354 14.469c-39.379 13.131-47.646 29.831-47.646 41.531.023 4.307 1.123 8.54 3.2 12.313l13.11 45.885c.135.476.315.938.537 1.38.89 1.78 5.844 10.171 23.155 18.45v116.6c-9.916-1.533-20.063.052-29.039 4.537-16.854 8.578-28.552 27.116-34.771 55.1-11.781 53.009-22.95 81.735-48.192 81.735-10.593 0-16.532-9.055-25.054-23.969-8.58-15.014-18.303-32.031-38.946-32.031-4.418 0-8 3.582-8 8s3.582 8 8 8c10.593 0 16.532 9.055 25.054 23.969 8.58 15.014 18.303 32.031 38.946 32.031 39.584 0 52.771-44.589 63.81-94.265 5.106-22.977 13.929-37.854 26.226-44.215 8.373-4.332 16.843-3.707 21.964-2.653v81c-25.628 11.953-31.731 25.577-31.987 35.473l-7.933 55.533c-.3 2.1.247 4.234 1.52 5.931 2.7 3.6 29.879 35.2 150.4 35.2s147.7-31.6 150.4-35.2c1.273-1.697 1.82-3.831 1.52-5.931zm-172.224-232.081c-9.6 30.162-34.957 54.909-67.763 66.153v-17.023c24.289-9.751 43.02-28.12 51.3-50.358 5.189.496 10.677.905 16.463 1.228zm-67.763 82.947c1.907-.569 68.638-19.299 84.258-82.323 3.8.079 7.708.125 11.744.125 1.6 0 3.177-.009 4.741-.021-11.143 47.196-50.097 85.424-100.743 98.835zm125.261-19.3c24.944-1.894 48.043-6.227 66.739-12.461v15.056c-20.865 7.788-48.689 12.741-78.845 14.11 4.353-5.331 8.396-10.908 12.106-16.705zm-27.178 33.085c35.063-.185 68.437-5.037 93.917-13.534v15.044c-24.773 9.246-59.352 14.5-96 14.5-5.46 0-10.883-.118-16.269-.354 6.437-4.832 12.566-10.061 18.352-15.656zm-40.583 30.094c12.793 1.285 25.643 1.924 38.5 1.916 35.823 0 70.016-4.879 96-13.544v15.484c-24.773 9.246-59.352 14.5-96 14.5-21.852.102-43.662-1.908-65.127-6 9.166-3.462 18.065-7.592 26.627-12.356zm-57.5 21.358c.34-.072.682-.138 1.021-.211 25.856 8.456 59.622 13.21 94.979 13.21 35.823 0 70.016-4.879 96-13.544v14.6c-24.773 9.246-59.352 14.5-96 14.5s-71.227-5.255-96-14.5zm192-113.955c-15.64 5.836-35.4 10.137-57.207 12.48 2.672-5.441 5.049-11.022 7.12-16.719 18.622-2.3 35.639-5.966 50.087-10.791zm-103.928 49.93c-23.98 23.583-54.272 39.937-88.072 47.646v-15.73c59.775-14.233 105.764-59.666 117.218-115.743 5.751-.228 11.222-.544 16.414-.948-5.671 31.758-21.314 60.928-45.56 84.775zm7.928 108.583c35.823 0 70.016-4.879 96-13.544v15.044c-24.773 9.246-59.352 14.5-96 14.5s-71.227-5.255-96-14.5v-15.044c25.984 8.665 60.177 13.544 96 13.544zm-96 18.456c25.984 8.665 60.177 13.544 96 13.544s70.016-4.879 96-13.544v15.585c-63.778 18.5-128.312 18.5-192 0zm192-208.968c-12.662 4.725-27.937 8.439-44.955 10.929 1.26-5.071 2.285-10.208 3.075-15.411 17.348-2.138 31.057-5.242 41.88-8.713zm-96-137.488c84.261 0 136 23.3 136 40s-51.739 40-136 40-136-23.3-136-40 51.739-40 136-40zm-120.643 92.631-5.833-20.417c7.093 3.734 14.495 6.851 22.122 9.317 27.993 9.33 65.054 14.469 104.354 14.469s76.361-5.139 104.354-14.469c7.627-2.466 15.029-5.583 22.122-9.317l-5.833 20.417c-2.872 3.683-25.101 27.369-120.643 27.369s-117.771-23.686-120.643-27.369zm59.471 39.424c-6.537 14.634-18.919 26.988-34.828 34.83v-42.592c11.377 3.536 23.026 6.132 34.828 7.762zm-50.828 217.811v18.134c0 3.512 2.29 6.613 5.646 7.646 34.423 10.724 70.262 16.214 106.316 16.286 36.078-.077 71.941-5.567 106.39-16.286 3.357-1.033 5.648-4.134 5.648-7.646v-18.125c10.188 5.875 16 12.33 16 18.125 0 16.7-48.695 40-128 40s-128-23.3-128-40c0-5.844 5.789-12.265 16-18.134zm112 98.134c-94.67 0-127.387-20.326-135.5-26.917l4.14-28.977c6.883 5.988 17.225 11.976 32.533 17.379 26.518 9.36 61.616 14.515 98.827 14.515s72.309-5.155 98.829-14.515c15.308-5.4 25.65-11.391 32.533-17.379l4.14 28.977c-8.115 6.591-40.832 26.917-135.502 26.917z"/><path d="m271.556 91.148c15.161 3.129 35.206 4.852 56.444 4.852s41.283-1.723 56.444-4.852c7.957-1.641 29.094-6 29.094-19.148s-21.138-17.507-29.094-19.148c-15.161-3.129-35.206-4.852-56.444-4.852s-41.283 1.723-56.444 4.852c-7.957 1.641-29.094 6-29.094 19.148s21.138 17.507 29.094 19.148zm8.168-23.557c13.455-2.316 30.6-3.591 48.276-3.591 33.808 0 56.4 4.416 65.774 7.982-3.249 1.283-8.665 2.907-17.5 4.427-13.453 2.316-30.598 3.591-48.274 3.591-33.808 0-56.4-4.416-65.774-7.982 3.249-1.283 8.665-2.907 17.498-4.427z"/></g></svg>