<svg id="Capa_1" enable-background="new 0 0 512 512" height="512" viewBox="0 0 512 512" width="512" xmlns="http://www.w3.org/2000/svg"><g><g><path d="m165.667 407.524v34.346c0 4.142 3.357 7.5 7.5 7.5h165.666c4.143 0 7.5-3.358 7.5-7.5v-34.346c0-4.142-3.357-7.5-7.5-7.5h-165.666c-4.143 0-7.5 3.358-7.5 7.5zm15 7.5h150.666v19.346h-150.666z"/><path d="m253.021 312.569v60.609c0 4.142 3.357 7.5 7.5 7.5s7.5-3.358 7.5-7.5v-60.609c0-4.142-3.357-7.5-7.5-7.5s-7.5 3.358-7.5 7.5z"/><path d="m182.64 305.484c-3.913 1.358-5.984 5.632-4.626 9.545l20.739 59.748c1.255 3.536 4.608 5.902 8.356 5.902h.057c3.772-.024 7.123-2.439 8.356-6.063l19.79-59.571c1.307-3.931-.822-8.176-4.753-9.482-3.928-1.305-8.176.822-9.481 4.753l-14.095 42.428-14.8-42.634c-1.357-3.913-5.633-5.985-9.543-4.626z"/><path d="m291.841 305.111c-3.429.29-6.875 3.508-6.751 7.462v60.603c0 4.142 3.357 7.5 7.5 7.5s7.5-3.358 7.5-7.5v-18.864c3.415-.018 7.196-.034 9.375-.034 13.75 0 24.937-11.037 24.937-24.602s-11.187-24.602-24.937-24.602h-16.875c-.251-.001-.501.012-.749.037zm17.624 14.962c5.386 0 9.937 4.397 9.937 9.602s-4.551 9.602-9.937 9.602c-2.164 0-5.898.016-9.299.033-.018-3.516-.034-7.413-.034-9.635 0-1.884-.01-5.921-.02-9.602z"/><path d="m357.017 125.26h-55.56l46.353-114.955c.932-2.312.654-4.935-.739-7.001-1.395-2.066-3.725-3.304-6.217-3.304h-44.447c-3.06 0-5.812 1.858-6.956 4.695l-33.451 82.957-33.45-82.957c-1.145-2.837-3.897-4.695-6.956-4.695h-44.447c-2.492 0-4.822 1.238-6.217 3.304-1.394 2.066-1.671 4.689-.739 7.001l46.353 114.956h-55.56c-15.275 0-27.703 12.428-27.703 27.703v229.039c0 4.142 3.357 7.5 7.5 7.5s7.5-3.358 7.5-7.5v-229.04c0-7.004 5.698-12.703 12.703-12.703h43.009v26.845c0 4.142 3.357 7.5 7.5 7.5h101.016c4.143 0 7.5-3.358 7.5-7.5v-26.845h43.009c7.005 0 12.703 5.699 12.703 12.703v35.242c0 4.142 3.357 7.5 7.5 7.5s7.5-3.358 7.5-7.5v-35.242c-.001-15.275-12.429-27.703-27.704-27.703zm-55.548-110.26h28.273l-44.459 110.26h-14.119l-7.077-17.552zm-119.211 0h28.273l44.459 110.26h-28.273zm116.75 144.605h-86.016v-19.345h86.016z"/><path d="m377.22 215.714c-4.143 0-7.5 3.358-7.5 7.5v261.083c0 7.004-5.698 12.703-12.703 12.703h-202.034c-7.005 0-12.703-5.699-12.703-12.703v-67.261c0-4.142-3.357-7.5-7.5-7.5s-7.5 3.358-7.5 7.5v67.261c0 15.275 12.428 27.703 27.703 27.703h202.033c15.275 0 27.703-12.428 27.703-27.703v-261.083c.001-4.142-3.357-7.5-7.499-7.5z"/><path d="m293.91 218.184-17.693-2.571-7.912-16.033c-2.329-4.718-7.044-7.649-12.305-7.649s-9.976 2.931-12.305 7.649l-7.912 16.033-17.694 2.571c-5.206.757-9.45 4.335-11.075 9.338-1.626 5.004-.296 10.394 3.472 14.066l12.803 12.479-3.021 17.621c-.89 5.186 1.201 10.328 5.457 13.421 4.256 3.092 9.794 3.492 14.451 1.045l15.825-8.32 15.825 8.32c2.026 1.065 4.218 1.591 6.398 1.591 2.833 0 5.647-.888 8.053-2.636 4.256-3.093 6.347-8.235 5.457-13.42l-3.021-17.622 12.803-12.48c3.768-3.672 5.098-9.062 3.472-14.066-1.627-5.002-5.871-8.581-11.078-9.337zm-16.15 25.612c-3.233 3.152-4.709 7.692-3.945 12.145l2.697 15.731-14.127-7.427c-4-2.103-8.773-2.104-12.77 0l-14.127 7.427 2.698-15.732c.763-4.451-.713-8.991-3.946-12.144l-11.43-11.141 15.794-2.295c4.47-.649 8.332-3.455 10.332-7.506l7.064-14.313 7.063 14.313c2 4.05 5.862 6.856 10.332 7.505l15.794 2.295z"/></g></g></svg>