<svg id="Capa_1" enable-background="new 0 0 512.002 512.002" height="512" viewBox="0 0 512.002 512.002" width="512" xmlns="http://www.w3.org/2000/svg"><g><path d="m331.69 142.016 138.71 39.119c3.606 1.019 7.411-.784 8.91-4.219s.232-7.449-2.967-9.401l-116.039-70.81c-23.347-14.247-51.139-20.116-78.25-16.524l-169.346 22.424c-4.106.544-6.995 4.313-6.451 8.419.543 4.106 4.316 6.998 8.419 6.451l169.346-22.424c23.725-3.142 48.041 1.993 68.468 14.459l69.432 42.369-86.161-24.299c-18.411-5.193-37.981-5.595-56.591-1.163l-264.17 62.911v-12.654c0-26.224 19.604-48.595 45.601-52.038l23.518-3.114c4.106-.544 6.995-4.313 6.451-8.419s-4.314-6.998-8.419-6.451l-23.518 3.114c-33.427 4.425-58.633 33.189-58.633 66.907v22.15c0 2.295 1.051 4.463 2.852 5.886 1.337 1.056 2.978 1.614 4.649 1.614.579 0 1.162-.067 1.737-.204l273.408-65.111c16.128-3.841 33.088-3.491 49.044 1.008z"/><path d="m430.058 386.147c-39.798 12.808-68.933-6.208-81.79-26.384-2.226-3.493-6.861-4.52-10.355-2.294-3.493 2.226-4.52 6.862-2.294 10.355 9.379 14.718 23.578 26.183 39.979 32.281 9.261 3.443 19.086 5.166 29.191 5.166 9.782 0 19.826-1.615 29.863-4.845 3.943-1.269 6.111-5.494 4.842-9.437s-5.495-6.11-9.436-4.842z"/><path d="m506.138 273.742c-4.038-.905-8.052 1.639-8.957 5.681-6.719 30.024-29.441 36.665-42.388 37.952-23.312 2.316-47.496-8.825-56.226-25.581 6.466-6.498 12.62-13.348 18.427-20.563 2.597-3.227 2.086-7.948-1.14-10.545-3.228-2.597-7.949-2.086-10.545 1.14-20.558 25.543-45.589 46.392-74.398 61.967-29.898 16.164-62.408 25.81-96.625 28.668-56.071 4.687-112.471-10.118-158.802-41.684-7.946-5.414-17.717-7.943-27.51-7.125l-5.631.47c-4.128.345-7.195 3.971-6.85 8.098.345 4.128 3.968 7.192 8.098 6.85l5.631-.47c6.378-.533 12.705 1.091 17.816 4.574 19.293 13.144 40.23 23.541 62.142 31.032-6.151 10.712-15.955 13.251-16.373 13.354-4.041.909-6.58 4.922-5.67 8.963.784 3.487 3.88 5.855 7.31 5.855.545 0 1.099-.06 1.653-.185.808-.182 18.436-4.375 27.648-23.478 6.357 1.768 12.78 3.295 19.256 4.579-2.255 17.098-14.827 30.796-14.951 30.93-2.837 3.019-2.689 7.765.33 10.601 1.448 1.361 3.292 2.035 5.134 2.035 1.998 0 3.991-.793 5.467-2.364.693-.737 15.734-16.988 18.812-38.705 6.229.869 12.494 1.514 18.783 1.932-.37 24.298-11.36 42.651-11.471 42.832-2.17 3.528-1.071 8.147 2.457 10.318 1.226.754 2.583 1.113 3.923 1.113 2.519 0 4.978-1.268 6.395-3.57.575-.935 13.176-21.767 13.686-50.128.779.007 1.558.022 2.337.022 5.454 0 10.922-.173 16.388-.518v57.56c0 4.142 3.358 7.5 7.5 7.5s7.5-3.358 7.5-7.5v-58.958c5.629-.677 11.216-1.514 16.749-2.542-.072 14.119 2.851 45.463 28.166 64.077 1.338.984 2.894 1.458 4.437 1.458 2.304 0 4.579-1.059 6.048-3.058 2.454-3.337 1.738-8.031-1.6-10.485-22.044-16.209-22.33-46.747-21.947-55.275 5.397-1.338 10.741-2.848 16.029-4.527 2.376 17.846 12.135 44.314 30.205 59.127 9.45 7.747 20.432 11.709 32.221 11.709 3.608 0 7.293-.372 11.033-1.119 4.062-.812 6.696-4.764 5.884-8.825-.813-4.062-4.763-6.697-8.825-5.884-11.726 2.345-21.801-.102-30.803-7.481-16.37-13.421-24.125-39.529-25.17-52.614 10.355-3.983 20.473-8.64 30.324-13.966 7.07-3.822 13.916-7.957 20.547-12.37 6.448 17.583 21.961 33.538 41.738 42.242 7.701 3.39 19.307 7.053 33.493 7.053 14.543 0 31.796-3.854 50.317-15.803 3.481-2.246 4.482-6.888 2.236-10.368-2.246-3.481-6.889-4.482-10.368-2.236-30.683 19.796-56.798 13.275-69.635 7.625-17.403-7.659-31.066-22.508-34.93-37.632 5.491-4.158 10.804-8.538 15.944-13.122 11.638 18.24 35.94 30.305 61.176 30.305 2.566 0 5.142-.125 7.715-.38 28.886-2.87 49.131-20.949 55.543-49.603.903-4.043-1.641-8.054-5.683-8.958z"/></g></svg>