<svg id="Layer_1" enable-background="new 0 0 512 512" height="512" viewBox="0 0 512 512" width="512" xmlns="http://www.w3.org/2000/svg"><g><path d="m324.548 144.6c-31.652 0-55.139 18.918-68.548 33.512-99.457-105.074-260.464 56.891-7.716 217.14 4.748 2.852 10.683 2.852 15.433.002 5.546-3.327 135.816-82.561 135.816-175.671 0-41.347-33.638-74.983-74.985-74.983zm-68.548 219.988c-207.244-138.771-78.374-249.385-12.825-154.364 5.552 9.548 20.054 9.583 25.624.044 65.522-95.096 194.485 15.52-12.799 154.32z"/><path d="m74.68 304.588c-2.145-8.001-10.368-12.745-18.371-10.606l-30.125 8.072c-8.002 2.145-12.75 10.37-10.606 18.372 2.041 7.616 10.001 12.845 18.371 10.606l30.125-8.072c8.001-2.145 12.75-10.37 10.606-18.372z"/><path d="m207.421 437.327c-8.003-2.146-16.227 2.604-18.372 10.605l-8.073 30.125c-2.145 8.002 2.604 16.228 10.606 18.371 8.424 2.258 16.342-3.033 18.372-10.605l8.073-30.125c2.144-8.002-2.604-16.227-10.606-18.371z"/><path d="m102.05 123.265c5.858 5.859 15.357 5.857 21.213 0 5.858-5.857 5.858-15.354 0-21.213l-22.052-22.053c-5.858-5.858-15.355-5.858-21.213 0-5.858 5.857-5.858 15.354 0 21.213z"/><path d="m74.68 207.418c2.144-8.002-2.604-16.228-10.606-18.372l-45.188-12.108c-19.396-4.428-26.764 23.128-7.765 28.979l45.188 12.108c8.474 2.265 16.354-3.081 18.371-10.607z"/><path d="m189.048 64.072c2.041 7.617 10 12.846 18.371 10.607 8.002-2.144 12.751-10.369 10.607-18.371l-12.106-45.188c-2.144-8.002-10.368-12.748-18.371-10.607-8.002 2.144-12.751 10.369-10.607 18.371z"/><path d="m102.05 388.74-33.082 33.079c-5.858 5.858-5.858 15.355 0 21.214 5.872 5.871 15.368 5.845 21.213.001l33.082-33.079c5.858-5.858 5.859-15.355.001-21.214-5.858-5.856-15.355-5.857-21.214-.001z"/><path d="m437.32 207.412c2.145 8.001 10.368 12.745 18.371 10.606l30.125-8.072c8.002-2.145 12.75-10.37 10.606-18.372-2.041-7.616-10.001-12.845-18.371-10.606l-30.125 8.072c-8.001 2.145-12.75 10.37-10.606 18.372z"/><path d="m304.579 74.673c8.003 2.146 16.227-2.604 18.372-10.605l8.073-30.125c2.145-8.002-2.604-16.228-10.606-18.371-8.424-2.258-16.342 3.033-18.372 10.605l-8.073 30.125c-2.144 8.002 2.604 16.227 10.606 18.371z"/><path d="m409.95 388.735c-5.858-5.859-15.357-5.857-21.213 0-5.858 5.857-5.858 15.354 0 21.213l22.052 22.053c5.858 5.858 15.355 5.858 21.213 0 5.858-5.857 5.858-15.354 0-21.213z"/><path d="m500.879 306.084-45.188-12.108c-19.677-4.389-26.539 23.339-7.765 28.979l45.188 12.108c19.396 4.427 26.764-23.129 7.765-28.979z"/><path d="m322.952 447.928c-2.041-7.617-10-12.846-18.371-10.607-8.002 2.144-12.751 10.369-10.607 18.371l12.106 45.187c2.144 8.002 10.368 12.748 18.371 10.607 8.002-2.144 12.751-10.369 10.607-18.371z"/><path d="m409.949 123.26 33.082-33.079c5.858-5.858 5.858-15.355 0-21.214-5.872-5.871-15.368-5.845-21.213-.001l-33.082 33.079c-5.858 5.858-5.859 15.355-.001 21.214 5.859 5.856 15.356 5.857 21.214.001z"/></g></svg>