<svg xmlns="http://www.w3.org/2000/svg" xml:space="preserve" id="steam-bath" x="0" y="0" style="enable-background:new 0 0 75 75" version="1.1" viewBox="0 0 75 75">
  <g id="Steam_Bath" transform="scale(1.3) translate(-8, -8)">
    <path d="M66.9189453 48.6613197H41.1889648c-1.8369141 0-3.3310547 1.4941406-3.3310547 3.3310547s1.4941406 3.3310547 3.3310547 3.3310547h25.7299805c1.8369141 0 3.3310547-1.4941406 3.3310547-3.3310547S68.7558594 48.6613197 66.9189453 48.6613197zM66.9189453 53.8234291H41.1889648c-1.0097656 0-1.8310547-.8212891-1.8310547-1.8310547s.8212891-1.8310547 1.8310547-1.8310547h25.7299805c1.0097656 0 1.8310547.8212891 1.8310547 1.8310547S67.9287109 53.8234291 66.9189453 53.8234291zM43.6699219 57.1046791c-.4140625 0-.75.3359375-.75.75v2.2006836c0 .4140625.3359375.75.75.75h20.7680664c.4140625 0 .75-.3359375.75-.75v-2.2006836c0-.4140625-.3359375-.75-.75-.75s-.75.3359375-.75.75v1.4506836H44.4199219v-1.4506836C44.4199219 57.4406166 44.0839844 57.1046791 43.6699219 57.1046791zM59.3457031 61.8859291c-.4140625 0-.75.3359375-.75.75v2.0756798c0 .4140625.3359375.75.75.75h3.206543c.4140625 0 .75-.3359375.75-.75v-2.0756798c0-.4140625-.3359375-.75-.75-.75s-.75.3359375-.75.75v1.3256836h-1.706543v-1.3256836C60.0957031 62.2218666 59.7597656 61.8859291 59.3457031 61.8859291zM45.5551758 61.8859291c-.4140625 0-.75.3359375-.75.75v2.0756798c0 .4140625.3359375.75.75.75h3.2070313c.4140625 0 .75-.3359375.75-.75v-2.0756798c0-.4140625-.3359375-.75-.75-.75s-.75.3359375-.75.75v1.3256836h-1.7070313v-1.3256836C46.3051758 62.2218666 45.9692383 61.8859291 45.5551758 61.8859291zM47.9296875 16.9572182c-.5864487 1.8320141.5060005 3.7840691 2.3662109 4.2416992.8665466.2170296 1.5358734.4024792 2.3701172.4169922.0043945 0 .0087891 0 .0131836 0 .4082031 0 .7421875-.3271484.7495117-.7373047.0068359-.4140625-.3227539-.7553711-.7373047-.7626953-.652771-.0108891-1.1911926-.1613541-2.0371094-.3730469-1.0203056-.1613541-2.0371094-.3730469-1.0203056-.252039-1.6181946-1.3208218-1.2958984-2.328125.493042-1.5380859 1.1375732-3.2214355 1.602417-4.3985596 1.4443245 1.4252148 2.8590431 2.0516205 2.7872314 4.9029541-.0102539.4145508.3168945.7583008.730957.769043.4418945.0029297.7587891-.3178711.769043-.730957.0999298-3.9984407-2.3987617-4.9447527-3.6025391-6.3964844-.3160248-.3814392-.1314697-.9342098.3378906-1.0981445 2.4267578-.8510742 4.4321289-.2543945 6.0810547 1.7504883 1.5927734 2.4946289 1.4970703 4.8251953-.300293 7.3334961-.35746.4992847.0058403 1.1870117.609375 1.1870117.2333984 0 .4638672-.1088867.6103516-.3129883 2.1401367-2.987793 2.2563477-6.0205078.2929688-9.0859375-2.1176758-2.5869141-4.7382813-3.3559575-7.7895508-2.2880859-.9012337.3160334-1.5830154 1.191226-1.4748535 2.2987061l-.036377.0904541C49.5678711 12.4518471 48.6113281 14.830265 47.9296875 16.9572182z"></path>
    <path d="M57.2963867 16.1456947c.3730469 0 .6962891-.2783203.7431641-.6577148.34375-2.7739258-1.3457031-3.8134766-2.2866211-3.9755859-.4023438-.0688477-.7807617.1982422-.8574219.6005859-.0766602.4018555.1899414.7919922.5908203.8754883.2197266.0458984 1.3051758.3730469 1.0649414 2.3149414C56.4954376 15.7511272 56.8446846 16.1456947 57.2963867 16.1456947zM54.6098633 45.5412025l5.0413818-11.3990479c1.7187767 2.5873947 1.6302147 2.5046959 1.7618408 2.6251221.4467773.4072266.7192383.9672852.7670898 1.5727539l.4248047 5.6694336c0 1.7177734 1.2280273 3.1435547 2.8613281 3.3173828 1.8503342.1867294 3.5226364-1.2374992 3.5185547-3.2373047 0 0-.3544922-4.7939453-.5942383-7.5761719-.1137695-1.3354492-.6118164-2.5981445-1.440918-3.6582031-.9326172-1.9111328-5.2724609-10.4375-8.5649414-10.6523438-.4233398-.0336914-.7705078.2871094-.7973633.699707-.0268555.4135742.2866211.7705078.699707.7973633 1.8164063.1181641 5.3911133 5.8515625 7.3491211 9.8847656.1020584.2102432 1.1027451 1.216732 1.2602539 3.0571289.2373047 2.7602539.5883789 7.503418.590332 7.503418 0 .98526-.8454361 1.7858658-1.8662109 1.6899414-.8500977-.0908203-1.515625-.8925781-1.5175781-1.8813477l-.4272461-5.7285156c-.0756836-.9570313-.4936523-1.8408203-1.1801758-2.4995117l-4.1679688-6.3095703c-.2294922-.3466797-.6948242-.4414063-1.0395508-.2124023-.3452148.2285156-.4404297.6938477-.2124023 1.0395508l1.5930786 2.4116211L53.21875 44.9821205c-.3896484 1.074707-1.1811523 1.550293-2.7265625 1.640625l-15.7680664.8120117c-.4790039.0234375-.909668.3061523-1.1586914.8193359l-3.5424805 9.90625c-.3774414 1.0913086-1.0678711 1.4399414-2.2958984 1.1723633-1.444191-.3466072-2.2748756-1.4593925-1.7890625-2.9467773l5.6196289-13.3500977c.4716797-.9345703 1.3740234-1.5727539 2.4125977-1.706543l13.3330078-1.6879883c.9726563-.1357422 1.2783203-.7294922 1.3603516-1.1889648.1061172-.529995-.0144768-1.0743904-.0478516-1.2851563.0073242-.7446289.1962891-9.347168 4.9799805-13.6547852.3076172-.2768555.3325195-.7509766.0551758-1.059082-.2773438-.3071289-.7509766-.3325195-1.059082-.0551758-5.472168 4.9272461-5.4785156 14.4272461-5.4760742 14.8291016 0 .0940208.0611877.4313507.1308594.8935547-20.4132786 2.6081848-10.780323 1.3773918-13.4672852 1.7207031-1.5336914.1977539-2.8647461 1.1391602-3.5825195 2.5654297l-5.6625977 13.453125c-.8299198 2.5139084.6776352 4.4098511 2.8520508 4.9331055 1.9095173.4206543 3.4036884-.2580872 4.0517578-2.1352539l3.4741211-9.730957 15.6625977-.8066406C52.706543 47.9957924 54.0327148 47.1369057 54.6098633 45.5412025z"></path>
    <path d="M5.9633789 65.4401245c7.1571331 1.3600159 14.3480225 1.2501678 21.5839844.0009766.7475586-.1376953 1.2905273-.7895508 1.2905273-1.5498009v-1.5424805c0-.4140625-.3359375-.75-.75-.75s-.75.3359375-.75.75l-.0541992 1.6152344c-1.4090576.2438927-2.7963867.4279747-4.1558228.5740929.2319546-17.1270981.2598152-15.3183899.2033691-15.6430626.6236572-.0452881 1.2449341-.0889893 1.8850708-.1448975.4125977-.0361328.7177734-.3994141.6816406-.8125-.0361328-.4125977-.3964844-.715332-.8125-.6816406-7.5722656.6606445-13.9404297.5693359-19.4711914-.2817383C5.1573491 46.9060822 4.75 47.2570724 4.75 47.715519v16.2485352C4.75 64.6744995 5.2558594 65.2946167 5.9633789 65.4401245zM21.6254272 64.6831665c-1.5227051.1361084-3.0653076.2098389-4.6174316.22229l.2318115-15.7290001c1.4863892-.0236816 3.0288086-.0871582 4.6195679-.1831055C21.4982929 73.2094955 21.6771355 61.2153282 21.6254272 64.6831665zM15.7393188 49.1837807l-.2315674 15.7169151c-1.5507813-.0294189-3.0907593-.1148682-4.6099243-.2681885l.2293091-15.583004C12.6084595 49.1378822 14.1447754 49.18256 15.7393188 49.1837807zM6.25 48.5827065c1.0911865.1505127 2.2227173.2651367 3.378418.3597412L9.4001465 64.4545288C8.338562 64.3178101 7.2846069 64.1618042 6.25 63.9640541V48.5827065zM22.0625 43.403019c1.4042969 0 2.3833008.7143555 2.3833008 1.3554688 0 .4140625.3359375.75.75.75s.75-.3359375.75-.75c0-2.9183998-5.0970955-3.8657494-7.131958-1.5803223-1.5489807-1.4151001-4.4885893-1.414135-6.0368042 0-2.0403032-2.2919464-7.1315308-1.3312149-7.1315308 1.5803223 0 .4140625.3359375.75.75.75s.75-.3359375.75-.75c0-.6411133.9790039-1.3554688 2.3833008-1.3554688s2.3833008.7143555 2.3833008 1.3554688c0 .0302734.0137329.0559082.0172119.0853271-.0026245.0439453-.0172119.085083-.0172119.1295166 0 .4140625.3359375.75.75.75s.75-.3359375.75-.75c0-.6411133.9790039-1.3549805 2.3833008-1.3549805s2.3833008.7138672 2.3833008 1.3549805c0 .4140625.3359375.75.75.75s.75-.3359375.75-.75c0-.0444336-.0145874-.0855713-.0172119-.1295166.003479-.0294189.0172119-.0550537.0172119-.0853271C19.6787109 44.1173744 20.6577148 43.403019 22.0625 43.403019zM8.7758789 39.7106361c.4140625 0 .75-.3359375.75-.75 0-.6411133.9790039-1.3549805 2.3833008-1.3549805s2.3833008.7138672 2.3833008 1.3549805c0 .4140625.3359375.75.75.75s.75-.3359375.75-.75c0-1.6010742-1.7055664-2.8549805-3.8833008-2.8549805C8.0093832 36.1056557 7.2084813 39.7106361 8.7758789 39.7106361zM12.3154297 35.2560463c.4140625 0 .75-.3359375.75-.75 0-.6411133.9790039-1.3549805 2.3833008-1.3549805s2.3833008.7138672 2.3833008 1.3549805c0 .4140625.3359375.75.75.75s.75-.3359375.75-.75c0-1.6010742-1.7055664-2.8549805-3.8833008-2.8549805C11.548934 31.6510658 10.7480326 35.2560463 12.3154297 35.2560463zM16.9521484 39.7106361c.4140625 0 .75-.3359375.75-.75 0-.6411133.9790039-1.3549805 2.3833008-1.3549805s2.3833008.7138672 2.3833008 1.3549805c0 .4140625.3359375.75.75.75s.75-.3359375.75-.75c0-1.6010742-1.7055664-2.8549805-3.8833008-2.8549805C16.1856518 36.1056557 15.3847513 39.7106361 16.9521484 39.7106361zM15.284668 24.8117104c-.0952148.402832.1542969.8071289.5576172.9023438.3977909.0943909.8061695-.1504593.9023438-.5576172l.4228516-1.7880859c.2172852-.9208984.0126953-1.8647461-.5761719-2.6577148l-1.2480469-1.6811523c-.4912109-.6611328-.5825195-1.449707-.2504883-2.1630859l.8291016-1.7797852c.175293-.3754883.0126953-.8217773-.362793-.996582-.3759766-.1757813-.8222656-.0117188-.996582.362793l-.8291016 1.7802734c-.5634766 1.2099609-.4121094 2.5898438.4057617 3.690918l1.2480469 1.6811523c.3208008.4316406.4345703.9355469.3203125 1.418457L15.284668 24.8117104zM21.3442383 15.0861244c.175293-.3754883.012207-.8212891-.3632813-.9960938-.3745117-.1757813-.8217773-.0126953-.9960938.3632813L19.15625 16.2326088c-.5639648 1.2094727-.4125977 2.5893555.4052734 3.6914063l1.2485352 1.6806641c.3208008.4326172.434082.9360352.3198242 1.4189453l-.4228516 1.7880859c-.1114807.4716492.2470493.9223633.7304688.9223633.3398438 0 .6479492-.2324219.7294922-.5776367l.4228516-1.7875977c.2177734-.9204102.0136719-1.8642578-.5756836-2.6582031l-1.2485352-1.6806641c-.4912109-.6621094-.5820313-1.4506836-.25-2.1640625L21.3442383 15.0861244zM10.8032227 15.512394c.175293-.3754883.012207-.8212891-.3632813-.9960938-.3740234-.1757813-.8217773-.0126953-.9960938.3632813L8.6152344 16.65839c-.5639648 1.2104492-.4125977 2.5908203.4052734 3.6918945l1.2485352 1.6806641c.3203125.4321289.434082.9360352.3198242 1.4189453l-.4228516 1.7880859c-.0952148.402832.1542969.8071289.5576172.9023438.3977919.0943909.8061686-.1504593.9023438-.5576172l.4228516-1.7880859c.2172852-.9208984.0131836-1.8642578-.5756836-2.6577148l-1.2485352-1.6811523c-.4912109-.6616211-.5825195-1.4501953-.25-2.1640625L10.8032227 15.512394z"></path>
  </g>
</svg>
