<svg id="Capa_1" enable-background="new 0 0 513.128 513.128" height="512" viewBox="0 0 513.128 513.128" width="512" xmlns="http://www.w3.org/2000/svg"><g><path d="m207.641 178.127c7.234 2.73 12.263 7.926 15.372 15.888 1.526 3.905 5.22 6.443 9.409 6.466h.057c4.193 0 7.912-2.51 9.484-6.408 3.14-7.78 8.341-12.98 15.902-15.898 3.892-1.502 6.464-5.159 6.552-9.316.089-4.145-2.317-7.897-6.129-9.558-7.847-3.42-13.173-8.561-16.281-15.716-1.644-3.78-5.339-6.178-9.503-6.114-4.125.065-7.771 2.579-9.291 6.403-2.769 6.961-7.964 11.974-15.886 15.327-3.882 1.643-6.336 5.424-6.252 9.633.083 4.171 2.661 7.819 6.566 9.293zm25.138-20.504c3.011 4.241 6.755 7.879 11.209 10.891-4.539 2.99-8.352 6.78-11.416 11.347-2.968-4.584-6.645-8.367-11.006-11.324 4.527-3.01 8.272-6.656 11.213-10.914z"/><path d="m341.389 335.957c-7.847-3.42-13.173-8.562-16.281-15.717-1.643-3.779-5.395-6.189-9.503-6.114-4.125.065-7.771 2.579-9.291 6.403-2.768 6.96-7.964 11.973-15.884 15.326-3.883 1.643-6.337 5.424-6.254 9.632.082 4.173 2.66 7.821 6.566 9.295 7.233 2.729 12.262 7.926 15.371 15.888 1.526 3.905 5.22 6.443 9.409 6.466h.057c4.193 0 7.913-2.511 9.484-6.408 3.14-7.779 8.341-12.979 15.902-15.898 3.892-1.502 6.464-5.159 6.552-9.316.09-4.145-2.317-7.897-6.128-9.557zm-25.717 20.559c-2.968-4.585-6.644-8.367-11.005-11.325 4.527-3.009 8.271-6.654 11.212-10.913 3.011 4.241 6.756 7.879 11.209 10.891-4.538 2.99-8.351 6.78-11.416 11.347z"/><path d="m143.995 280.541c-1.606-3.698-5.266-6.061-9.296-5.983-4.035.064-7.603 2.523-9.089 6.265-2.475 6.221-7.132 10.708-14.235 13.715-3.796 1.606-6.196 5.304-6.115 9.419.081 4.083 2.603 7.652 6.425 9.095 6.462 2.438 10.956 7.088 13.74 14.218 1.492 3.821 5.105 6.304 9.204 6.327h.058c4.101 0 7.737-2.455 9.275-6.267 2.812-6.968 7.468-11.625 14.234-14.236 3.805-1.469 6.32-5.045 6.407-9.111.086-4.055-2.267-7.725-5.995-9.35-7.046-3.07-11.827-7.68-14.613-14.092zm-9.214 32.411c-2.499-3.673-5.507-6.768-9.008-9.272 3.634-2.529 6.704-5.517 9.194-8.949 2.537 3.413 5.6 6.39 9.174 8.917-3.65 2.53-6.775 5.636-9.36 9.304z"/><path d="m278.133 369.722c-7.068 5.235-14.378 10.265-21.727 14.95l-12.472 7.952c-8.63 5.502-13.937 14.896-14.197 25.127l-.433 17.047c-.276 10.827-4.802 20.845-12.743 28.208s-18.275 11.124-29.087 10.576l-49.836-2.5c-12.152-.606-24.311.499-36.149 3.294l-31.582 7.458c-2.319.546-4.687-.558-5.753-2.692-1.237-2.473-.305-5.451 2.122-6.778l60.511-33.092c3.634-1.987 4.969-6.544 2.981-10.179-1.987-3.634-6.543-4.971-10.179-2.981l-60.511 33.092c-9.54 5.217-13.204 16.922-8.341 26.647 3.476 6.95 10.459 11.129 17.943 11.128 1.545 0 3.112-.178 4.673-.547l31.582-7.458c10.463-2.471 21.213-3.449 31.95-2.911l49.836 2.5c14.897.745 29.105-4.424 40.037-14.558 10.932-10.135 17.16-23.924 17.54-38.826l.433-17.048c.134-5.237 2.85-10.044 7.267-12.86l12.472-7.952c7.642-4.872 15.242-10.102 22.59-15.544 3.328-2.465 4.028-7.162 1.563-10.491-2.465-3.327-7.163-4.029-10.49-1.562z"/><path d="m510.538 230.227-80.67-69.885c-12.586-10.903-29.295-16.122-45.852-14.315-16.553 1.806-31.746 10.503-41.686 23.863l-22.457 30.186-39.102-15.863c-3.839-1.559-8.213.293-9.77 4.13-1.557 3.838.292 8.212 4.131 9.769l35.49 14.398-38.859 52.233-21.203-5.721c-26.308-7.097-51.394-18.03-74.56-32.496-3.514-2.193-8.141-1.125-10.334 2.39-2.194 3.513-1.124 8.14 2.389 10.334 24.42 15.248 50.864 26.772 78.599 34.254l15.483 4.177-82.567 110.986c-3.864 5.195-8.704 9.404-14.386 12.511l-16.946 9.268c-3.634 1.987-4.969 6.544-2.981 10.179 1.362 2.492 3.934 3.903 6.587 3.903 1.216 0 2.449-.296 3.592-.921l16.946-9.267c7.592-4.152 14.06-9.777 19.224-16.719l162.762-218.777c7.566-10.171 18.675-16.53 31.277-17.904 12.605-1.376 24.821 2.44 34.402 10.741l80.67 69.885c3.13 2.712 7.866 2.374 10.58-.758 2.711-3.132 2.372-7.869-.759-10.581z"/><path d="m503.702 384.081-19.51-13.603c-7.726-5.387-15.346-11.254-22.647-17.438-3.161-2.678-7.893-2.285-10.57.876s-2.284 7.894.877 10.57c7.658 6.486 15.652 12.642 23.761 18.296l19.51 13.603c1.308.911 2.803 1.348 4.283 1.348 2.37 0 4.701-1.12 6.159-3.211 2.369-3.397 1.535-8.072-1.863-10.441z"/><path d="m59.331 184.041 38.637-5.091c.459-.059.912.116 1.211.472 12.093 14.417 25.688 27.738 40.411 39.595 1.386 1.116 3.048 1.659 4.699 1.659 2.192 0 4.364-.957 5.846-2.796 2.599-3.226 2.09-7.947-1.137-10.545-13.965-11.246-26.859-23.88-38.327-37.551-3.61-4.306-9.099-6.438-14.662-5.704l-38.637 5.091c-4.521.593-8.966-.657-12.512-3.527-3.545-2.871-5.694-6.956-6.053-11.503l-3.509-44.53c-.978-12.402-3.705-24.592-8.106-36.232l-11.626-30.744c-1.399-3.702-.078-7.823 3.213-10.021 3.828-2.557 8.916-1.621 11.584 2.129l59.281 83.326c3.136 4.406 7.441 7.81 12.452 9.842l77.857 31.586c3.841 1.56 8.213-.292 9.77-4.13s-.292-8.212-4.131-9.769l-77.857-31.586c-2.361-.958-4.392-2.563-5.869-4.639l-59.28-83.325c-7.402-10.405-21.519-13.001-32.139-5.908-9.13 6.099-12.794 17.531-8.91 27.801l11.626 30.742c3.9 10.313 6.317 21.115 7.184 32.105l3.509 44.53c.685 8.69 4.793 16.498 11.567 21.982 6.774 5.486 15.265 7.881 23.908 6.741z"/><path d="m381.109 246.66c-1.715-3.77-6.159-5.439-9.932-3.724-3.771 1.714-5.438 6.16-3.725 9.931 2.016 4.436 4.137 8.813 6.346 13.139-9.403 15.093-19.95 29.645-31.418 43.291-2.665 3.171-2.255 7.902.916 10.567 1.406 1.182 3.118 1.758 4.821 1.758 2.138 0 4.262-.91 5.745-2.674 10.115-12.034 19.537-24.748 28.135-37.905 12.789 22.044 28.157 42.474 45.934 60.978 1.472 1.533 3.439 2.304 5.409 2.304 1.869 0 3.74-.694 5.194-2.091 2.987-2.87 3.083-7.617.213-10.604-23.952-24.936-43.345-53.524-57.638-84.97z"/></g></svg>