<svg id="Capa_1" enable-background="new 0 0 512 512" height="512" viewBox="0 0 512 512" width="512" xmlns="http://www.w3.org/2000/svg"><g><g><g><g><path d="m465.054 304.383c-.497 0-1-.05-1.506-.154-4.038-.827-6.641-4.772-5.813-8.81 16.283-79.442 5.963-285.5 5.856-287.573-.211-4.116 2.955-7.624 7.072-7.835 4.118-.223 7.624 2.955 7.835 7.072.437 8.538 10.521 210.045-6.141 291.333-.723 3.533-3.832 5.967-7.303 5.967z"/></g><g><path d="m215.842 293.288c-4.97 4.97-11.578 7.707-18.607 7.707s-13.637-2.737-18.607-7.707c-2.914-2.914-7.64-2.914-10.554 0-2.915 2.914-2.915 7.64 0 10.554 7.789 7.789 18.145 12.079 29.161 12.079s21.372-4.29 29.161-12.079c2.915-2.914 2.915-7.64 0-10.554-2.914-2.914-7.64-2.914-10.554 0z"/><path d="m343.553 303.843c2.915-2.914 2.915-7.64 0-10.554-2.914-2.914-7.64-2.914-10.554 0-4.97 4.97-11.578 7.707-18.607 7.707s-13.637-2.737-18.607-7.707c-2.914-2.914-7.64-2.914-10.554 0-2.915 2.914-2.915 7.64 0 10.554 7.789 7.789 18.145 12.079 29.161 12.079s21.372-4.29 29.161-12.079z"/><path d="m457.378 323.862c-3.817-1.558-8.173.272-9.731 4.087-9.851 24.121-32.436 66.707-73.056 80.924l-57.964 20.701c-2.162-8.03 1.964-16.491 9.641-19.723l39.69-16.711c1.211-.51 2.266-1.33 3.058-2.379l53.039-70.198c2.485-3.289 1.833-7.969-1.455-10.454-3.289-2.485-7.969-1.832-10.454 1.455l-51.602 68.297c-3.083.535-6.222-.93-7.756-3.811-4.134-7.765-3.533-17.042 1.568-24.208l28.795-40.451c.963-1.352 1.445-3.018 1.375-4.676-.056-1.326-1.036-32.766 28.707-57.971 3.651-3.095 5.433-7.948 4.649-12.664l-38.193-229.838c-.676-4.066-4.522-6.817-8.586-6.139-4.066.675-6.814 4.52-6.139 8.586l18.454 111.051c-4.546-4.823-9.371-9.329-14.349-13.59-2.008-15.945-5.72-28.252-11.34-37.558-10.225-16.931-26.659-31.418-48.846-43.06-36.765-19.292-79.31-20.858-113.811-4.192-15.77 7.619-30.076 21.4-39.249 37.809-8.929 15.972-12.522 33.334-10.347 49.422-2.484 2.128-4.949 4.338-7.385 6.642-1.904 1.801-3.836 3.568-5.662 5.432l18.604-111.957c.676-4.066-2.073-7.91-6.139-8.586-4.064-.675-7.91 2.072-8.586 6.139l-38.194 229.842c-.783 4.716.998 9.568 4.651 12.664 29.742 25.204 28.762 56.644 28.708 57.94-.086 1.679.398 3.337 1.374 4.707l28.795 40.451c5.101 7.166 5.702 16.443 1.569 24.208-1.534 2.881-4.675 4.346-7.756 3.811l-51.602-68.296c-2.484-3.289-7.163-3.941-10.454-1.456-3.288 2.485-3.94 7.165-1.455 10.454 0 0 53.451 70.708 53.68 70.941.688.697 1.508 1.254 2.424 1.639l39.683 16.709c7.676 3.232 11.802 11.692 9.641 19.723l-58.008-20.717c-57.849-20.247-79.28-98.595-79.488-99.379-.036-.136-.076-.271-.12-.404-21.164-65.004-9.47-298.873-9.349-301.228.211-4.116-2.955-7.624-7.072-7.835-4.112-.213-7.624 2.955-7.835 7.072-.498 9.718-11.93 238.577 10.002 306.424.662 2.435 6.375 22.668 19.384 45.626 18.253 32.211 42.302 54.278 69.501 63.797 0 0 1.749.625 4.636 1.656.006.008.01.017.016.025 18.419 26.355 46.663 52.511 77.489 71.76 1.026.64 25.212 15.628 41.165 15.628h.242c15.953 0 40.14-14.988 41.165-15.628 29.849-18.638 57.503-43.963 75.871-69.479.441-.613.773-1.27 1.006-1.949 3.45-1.232 5.59-1.996 5.59-1.996 46.096-16.134 71.098-62.908 81.899-89.354 1.557-3.819-.272-8.176-4.088-9.735zm-257.813-289.081c30.26-14.621 67.787-13.137 100.382 3.967 19.462 10.212 34.332 23.2 43.005 37.56 2.58 4.272 4.712 9.648 6.387 16.062-12.148-8.642-24.526-16.131-35.816-22.946-25.33-15.295-55.066-36.43-86.174-32.668-15.125 1.826-28.528 9.583-37.737 21.842-5.693 7.578-9.281 16.234-10.619 25.313-6.942 3.877-14.02 8.303-21.062 13.34 1.03-22.733 15.21-49.705 41.634-62.47zm-78.453 213.054c-2.988-3.393-6.355-6.75-10.156-10.013l14.362-86.425c4.577-7.521 10.048-14.589 16.436-21.005 11.161-11.208 23.84-20.945 37.396-29.18 4.228 25.769 21.797 39.82 39.431 52.003 7.928 5.477 15.534 10.6 22.916 15.439-18.307 12.907-38.476 23.201-57.377 32.316-18.05 8.688-36.568 17.33-51.672 30.8-5.148 4.593-8.616 10.152-11.336 16.065zm168.081 235.876c-8.908 5.563-25.075 13.363-33.243 13.363-.046 0-.092 0-.137 0-.046 0-.092 0-.137 0-8.168 0-24.335-7.801-33.243-13.363-22.079-13.787-42.708-31.258-58.944-49.671 13.798 4.928 26.974 9.634 26.987 9.638 3.728 1.332 8.219 1.054 11.793-.799 3.637-1.886 6.351-5.232 7.448-9.179 4.245-15.282-3.577-31.448-18.195-37.603l-20.288-8.542c1.201-1.336 2.268-2.83 3.152-4.488 6.81-12.792 5.819-28.073-2.585-39.879l-27.41-38.504c-.167-6.608-1.766-23.978-12.904-42.635 2.732-7.607 5.727-14.528 10.896-19.138 12.895-11.5 29.337-19.41 45.238-27.059 23.298-11.208 46.526-23.037 67.358-38.52 13.709 8.649 26.743 16.331 39.661 23.386 3.616 1.975 8.151.644 10.127-2.973s.644-8.151-2.973-10.127c-23.323-12.738-47.069-27.571-74.729-46.682-19.228-13.284-30.212-23.938-33.192-42.17-1.817-11.116.907-22.197 7.672-31.202 6.744-8.977 16.543-14.655 27.592-15.989 23.122-2.788 46.342 11.731 66.83 24.544 32.887 20.562 68.894 39.776 90.053 73.695.186.298 14.599 85.477 14.599 85.477-.251 1.214-.522 2.424-.812 3.629-3.329 2.951-6.329 5.968-9.007 9.017-2.726-5.951-6.206-11.546-11.383-16.164-14.441-12.88-31.898-21.283-47.299-28.696-3.715-1.789-8.174-.226-9.962 3.488s-.226 8.174 3.488 9.962c14.514 6.986 30.965 14.905 43.838 26.386 5.201 4.638 8.2 11.615 10.946 19.277-11.063 18.605-12.655 35.906-12.823 42.497l-27.41 38.504c-8.404 11.806-9.395 27.086-2.584 39.879.883 1.658 1.951 3.152 3.151 4.488l-20.287 8.542c-14.618 6.155-22.44 22.321-18.195 37.603 1.097 3.947 3.811 7.293 7.448 9.179 3.609 1.872 7.958 2.168 11.792.799 0 0 12.827-4.581 26.421-9.436-16.216 18.332-36.826 35.777-58.748 49.466z"/></g></g></g></g></svg>