<svg id="Capa_1" enable-background="new 0 0 512 512" height="512" viewBox="0 0 512 512" width="512" xmlns="http://www.w3.org/2000/svg"><path d="m126.676 364.384-15.2-34.632-66.502 115.042 87.062-2.577 43.201 69.783 66.967-113.571-46.304-27.044z"/><path d="m400.524 329.752-15.2 34.632-69.224 7.001-46.304 27.044 66.967 113.571 43.201-69.783 87.062 2.577z"/><path d="m256 274.589c50.612 0 91.788-41.176 91.788-91.787 0-50.612-41.176-91.788-91.788-91.788s-91.788 41.176-91.788 91.788c0 50.611 41.176 91.787 91.788 91.787zm-35.029-106.785 22.905 22.906 47.153-47.153 20.892 20.892-68.045 68.045-43.797-43.798z"/><path d="m389.26 283.257 44.086-39.175-12.58-57.63 12.579-57.632-44.085-39.174-23.69-53.978-58.658-5.931-50.912-29.737-50.913 29.737-58.657 5.931-23.69 53.978-44.086 39.175 12.58 57.631-12.579 57.631 44.085 39.174 23.691 53.977 58.657 5.932 50.912 29.736 50.913-29.736 58.657-5.932zm-133.26-221.788c66.903 0 121.333 54.43 121.333 121.333s-54.43 121.333-121.333 121.333-121.333-54.429-121.333-121.333 54.43-121.333 121.333-121.333z"/></svg>