<svg xmlns="http://www.w3.org/2000/svg" id="steam-room" viewBox="0 0 64 64">
  <path d="M58.18 46.66h-15.81v-5.05c0-.204-.124-.388-.313-.464-.539-.216-1.073-.403-1.616-.586v-7.276l5.562 8.422c.513.774 1.337 1.272 2.26 1.368.107.011.214.016.319.016.811 0 1.587-.316 2.169-.893.586-.576.909-1.356.909-2.197 0-.587-.158-1.146-.455-1.612l-8.07-13.041c-.966-1.559-2.707-2.526-4.545-2.526h-13.18c-1.838 0-3.579.968-4.545 2.527l-8.069 13.038c-.748 1.198-.559 2.799.45 3.808.579.578 1.352.896 2.174.896 1.044 0 2.008-.518 2.577-1.385l5.562-8.421v7.042c-.827.257-1.615.53-2.329.821-.188.077-.311.26-.311.463v5.05H5.82c-.276 0-.5.224-.5.5v3.55c0 .276.224.5.5.5h19.06v4.08c0 2.096 1.704 3.8 3.8 3.8 1.436 0 2.674-.81 3.32-1.988.646 1.178 1.884 1.988 3.32 1.988 2.096 0 3.8-1.704 3.8-3.8v-4.08h19.06c.276 0 .5-.224.5-.5v-3.55c0-.276-.224-.5-.5-.5ZM17.162 41.155c-.688 1.045-2.324 1.215-3.209.331-.683-.683-.812-1.764-.309-2.573l8.07-13.039c.785-1.267 2.201-2.054 3.695-2.054h13.18c1.494 0 2.91.787 3.695 2.053l8.073 13.045c.197.312.302.686.302 1.082 0 .57-.217 1.097-.612 1.484-.445.442-1.056.661-1.683.595-.624-.064-1.182-.401-1.528-.925l-6.479-9.81c-.121-.184-.352-.268-.561-.203-.212.063-.356.258-.356.479v8.63c-2.396-.707-4.874-1.101-7.383-1.14-2.514-.036-5.042.287-7.498.939v-8.429c0-.221-.145-.415-.356-.479-.208-.066-.439.019-.561.203l-6.48 9.811ZM21.92 41.949c.701-.274 1.482-.542 2.279-.779 2.556-.746 5.19-1.095 7.843-1.06 2.638.041 5.243.471 7.744 1.275.537.175 1.059.36 1.584.564v6.647c-.711-.229-1.618-.497-2.637-.725-2.132-.496-4.361-.766-6.634-.803h-.08c-.011 0-.021 0-.035 0-.001 0-.002 0-.004 0 0 0 0 0 0 0s0 0 0 0c-2.265-.019-4.531.2-6.697.649 0 0-.001 0-.002 0 0 0-.002 0-.003 0 0 0 0 0 0 0-1.135.224-2.239.511-3.358.873v-6.645ZM6.32 50.21v-2.55h14.6v1.63c0 .162.078.313.211.407.132.096.303.12.454.064 1.103-.385 2.189-.678 3.295-.921v1.37H6.32ZM31.48 55.29c0 1.544-1.257 2.8-2.801 2.8s-2.8-1.256-2.8-2.8v-6.662c.222-.043.446-.082.67-.12.217-.037.432-.078.651-.11.235-.035.472-.059.708-.089.547-.067 1.096-.12 1.65-.158.187-.013.372-.03.56-.039.259-.013.519-.016.778-.023.194-.005.389-.008.584-.009v7.212ZM38.12 55.29c0 1.544-1.256 2.8-2.8 2.8s-2.801-1.256-2.801-2.8v-7.202c.265.008.529.019.793.033.173.009.347.015.519.027.486.035.969.08 1.449.137.024.003.049.004.073.007.507.062 1.009.137 1.508.224.142.024.281.055.422.081.281.053.559.11.837.171v6.521ZM57.68 50.21h-18.56v-1.213c1.059.264 1.969.556 2.589.767.053.018.107.026.161.026.104 0 .205-.032.291-.094.131-.094.209-.245.209-.406v-1.63h15.31v2.55ZM32 4.912c-4.535 0-8.225 3.689-8.225 8.225s3.689 8.225 8.225 8.225c4.344 0 7.904-3.389 8.195-7.662.001-.01.007-.018.007-.029 0-.01-.004-.018-.004-.028.01-.168.026-.336.026-.507 0-4.535-3.689-8.225-8.224-8.225ZM39.221 13.086c-4.811-.558-6.259-5.426-6.617-7.143 3.685.307 6.591 3.387 6.617 7.143ZM32 20.361c-3.983 0-7.225-3.241-7.225-7.225 0-3.844 3.02-6.987 6.811-7.204.341 1.683 1.943 7.529 7.568 8.149-.465 3.537-3.492 6.28-7.155 6.28ZM48.541 18.163c.121-.248.019-.548-.229-.669-.248-.118-.546-.018-.669.229l-1.12 2.292c-.49 1.001-.205 2.221.678 2.899.506.391.671 1.091.393 1.665l-.346.714c-.462.956-.226 2.109.575 2.806l1.078.936c.095.082.212.122.328.122.14 0 .278-.059.378-.172.181-.209.158-.524-.05-.706l-1.078-.935c-.461-.401-.598-1.065-.331-1.615l.346-.714c.483-.998.196-2.214-.683-2.893-.508-.391-.672-1.092-.39-1.668l1.12-2.292ZM52.112 15.863c.121-.248.019-.548-.229-.669-.247-.119-.547-.019-.669.229l-1.12 2.292c-.489 1.002-.204 2.222.678 2.899.507.391.672 1.091.393 1.666l-.346.713c-.462.956-.226 2.109.575 2.806l1.078.936c.095.082.212.122.328.122.14 0 .278-.059.378-.172.181-.209.158-.524-.05-.706l-1.078-.936c-.461-.4-.598-1.064-.331-1.614l.346-.713c.484-.998.197-2.215-.683-2.894-.507-.39-.671-1.092-.39-1.668l1.12-2.292ZM56.236 18.677c.121-.248.019-.548-.229-.669-.244-.118-.547-.02-.669.229l-1.121 2.293c-.489 1-.204 2.22.679 2.9.506.39.671 1.089.392 1.664l-.346.713c-.463.957-.226 2.11.576 2.806l1.077.936c.095.082.212.122.328.122.14 0 .278-.059.378-.172.181-.209.158-.524-.05-.706l-1.078-.936c-.461-.399-.598-1.063-.331-1.614l.346-.712c.484-.999.197-2.216-.682-2.893-.508-.392-.672-1.094-.391-1.669l1.121-2.293ZM14.444 26.732c-.209.181-.231.497-.051.705.099.114.238.173.378.173.116 0 .233-.04.327-.122l1.079-.935c.801-.696 1.038-1.851.575-2.807l-.346-.713c-.278-.575-.113-1.275.393-1.664.883-.681 1.168-1.9.678-2.9l-1.12-2.293c-.122-.248-.42-.35-.669-.229-.248.121-.351.421-.229.669l1.12 2.293c.282.575.118 1.277-.39 1.668-.879.677-1.166 1.894-.683 2.893l.346.713c.267.551.131 1.215-.33 1.615l-1.078.935ZM10.872 24.434c-.208.182-.23.497-.05.706.1.113.238.172.378.172.116 0 .233-.04.328-.122l1.078-.936c.802-.697 1.038-1.851.575-2.806l-.346-.714c-.279-.575-.114-1.274.393-1.664.882-.681 1.167-1.899.678-2.9l-1.12-2.293c-.122-.248-.421-.349-.669-.229-.248.121-.351.421-.229.669l1.12 2.293c.281.575.117 1.277-.39 1.668-.88.678-1.167 1.895-.683 2.893l.346.714c.267.55.131 1.214-.331 1.614l-1.078.936ZM6.749 27.247c-.208.182-.23.497-.05.706.1.113.238.172.378.172.116 0 .233-.04.328-.122l1.077-.936c.802-.696 1.039-1.85.576-2.806l-.346-.715c-.279-.574-.114-1.273.393-1.664.881-.68 1.166-1.899.678-2.899l-1.121-2.292c-.122-.249-.424-.349-.669-.229-.248.121-.351.421-.229.669l1.121 2.292c.281.575.117 1.277-.39 1.668-.881.678-1.167 1.895-.683 2.893l.346.714c.267.55.13 1.214-.332 1.614l-1.077.936Z" style="stroke-width:0"></path>
</svg>
